<mxfile host="Electron" agent="Mozilla/5.0 (Windows NT 10.0; Win64; x64) AppleWebKit/537.36 (KHTML, like Gecko) draw.io/28.1.2 Chrome/138.0.7204.243 Electron/37.4.0 Safari/537.36" version="28.1.2">
  <diagram name="Page-1" id="HbWn4fBAT66-o-Pd7Z7B">
    <mxGraphModel dx="2053" dy="849" grid="1" gridSize="10" guides="1" tooltips="1" connect="1" arrows="1" fold="1" page="1" pageScale="1" pageWidth="827" pageHeight="1169" math="0" shadow="0">
      <root>
        <mxCell id="0" />
        <mxCell id="1" parent="0" />
        <mxCell id="TjdyM8zFQbpC29eJfy2d-43" style="edgeStyle=orthogonalEdgeStyle;rounded=0;orthogonalLoop=1;jettySize=auto;html=1;entryX=0;entryY=0.5;entryDx=0;entryDy=0;" edge="1" parent="1" source="TjdyM8zFQbpC29eJfy2d-1" target="TjdyM8zFQbpC29eJfy2d-2">
          <mxGeometry relative="1" as="geometry" />
        </mxCell>
        <mxCell id="TjdyM8zFQbpC29eJfy2d-1" value="MDP&lt;div&gt;oublié&lt;/div&gt;&lt;div&gt;&lt;br&gt;&lt;/div&gt;&lt;div&gt;&lt;br&gt;&lt;/div&gt;&lt;div&gt;&lt;br&gt;&lt;/div&gt;&lt;div&gt;&lt;br&gt;&lt;/div&gt;&lt;div&gt;&lt;br&gt;&lt;/div&gt;&lt;div&gt;&amp;nbsp;&lt;/div&gt;" style="whiteSpace=wrap;html=1;aspect=fixed;" vertex="1" parent="1">
          <mxGeometry x="-90" y="322.5" width="170" height="170" as="geometry" />
        </mxCell>
        <mxCell id="TjdyM8zFQbpC29eJfy2d-47" style="edgeStyle=orthogonalEdgeStyle;rounded=0;orthogonalLoop=1;jettySize=auto;html=1;" edge="1" parent="1" source="TjdyM8zFQbpC29eJfy2d-2" target="TjdyM8zFQbpC29eJfy2d-46">
          <mxGeometry relative="1" as="geometry" />
        </mxCell>
        <mxCell id="TjdyM8zFQbpC29eJfy2d-2" value="" style="whiteSpace=wrap;html=1;aspect=fixed;" vertex="1" parent="1">
          <mxGeometry x="130" y="322.5" width="160" height="160" as="geometry" />
        </mxCell>
        <mxCell id="TjdyM8zFQbpC29eJfy2d-3" value="IHM" style="whiteSpace=wrap;html=1;aspect=fixed;" vertex="1" parent="1">
          <mxGeometry x="254" y="30" width="80" height="80" as="geometry" />
        </mxCell>
        <mxCell id="TjdyM8zFQbpC29eJfy2d-7" value="" style="rounded=0;whiteSpace=wrap;html=1;" vertex="1" parent="1">
          <mxGeometry x="560" y="40" width="440" height="250" as="geometry" />
        </mxCell>
        <mxCell id="TjdyM8zFQbpC29eJfy2d-41" style="edgeStyle=orthogonalEdgeStyle;rounded=0;orthogonalLoop=1;jettySize=auto;html=1;entryX=0;entryY=0.5;entryDx=0;entryDy=0;" edge="1" parent="1" source="TjdyM8zFQbpC29eJfy2d-8" target="TjdyM8zFQbpC29eJfy2d-3">
          <mxGeometry relative="1" as="geometry" />
        </mxCell>
        <mxCell id="TjdyM8zFQbpC29eJfy2d-49" style="edgeStyle=orthogonalEdgeStyle;rounded=0;orthogonalLoop=1;jettySize=auto;html=1;" edge="1" parent="1" source="TjdyM8zFQbpC29eJfy2d-8">
          <mxGeometry relative="1" as="geometry">
            <mxPoint x="-30" y="320" as="targetPoint" />
          </mxGeometry>
        </mxCell>
        <mxCell id="TjdyM8zFQbpC29eJfy2d-8" value="" style="swimlane;startSize=0;" vertex="1" parent="1">
          <mxGeometry x="-40" y="40" width="160" height="190" as="geometry" />
        </mxCell>
        <mxCell id="TjdyM8zFQbpC29eJfy2d-9" value="Login" style="rounded=0;whiteSpace=wrap;html=1;" vertex="1" parent="TjdyM8zFQbpC29eJfy2d-8">
          <mxGeometry x="10" y="20" width="120" height="30" as="geometry" />
        </mxCell>
        <mxCell id="TjdyM8zFQbpC29eJfy2d-10" value="Password" style="rounded=0;whiteSpace=wrap;html=1;" vertex="1" parent="TjdyM8zFQbpC29eJfy2d-8">
          <mxGeometry x="10" y="70" width="120" height="30" as="geometry" />
        </mxCell>
        <mxCell id="TjdyM8zFQbpC29eJfy2d-11" value="submit" style="rounded=0;whiteSpace=wrap;html=1;" vertex="1" parent="TjdyM8zFQbpC29eJfy2d-8">
          <mxGeometry x="70" y="150" width="40" height="20" as="geometry" />
        </mxCell>
        <mxCell id="TjdyM8zFQbpC29eJfy2d-40" value="Mot de passe oublié?" style="text;html=1;align=center;verticalAlign=middle;resizable=0;points=[];autosize=1;strokeColor=none;fillColor=none;" vertex="1" parent="TjdyM8zFQbpC29eJfy2d-8">
          <mxGeometry y="110" width="140" height="30" as="geometry" />
        </mxCell>
        <mxCell id="TjdyM8zFQbpC29eJfy2d-24" style="edgeStyle=orthogonalEdgeStyle;rounded=0;orthogonalLoop=1;jettySize=auto;html=1;entryX=1;entryY=0.25;entryDx=0;entryDy=0;" edge="1" parent="1" source="TjdyM8zFQbpC29eJfy2d-19" target="TjdyM8zFQbpC29eJfy2d-23">
          <mxGeometry relative="1" as="geometry" />
        </mxCell>
        <mxCell id="TjdyM8zFQbpC29eJfy2d-19" value="Bloc A" style="rounded=0;whiteSpace=wrap;html=1;fillColor=#f8cecc;strokeColor=#b85450;" vertex="1" parent="1">
          <mxGeometry x="560" y="40" width="440" height="40" as="geometry" />
        </mxCell>
        <mxCell id="TjdyM8zFQbpC29eJfy2d-20" value="Bloc B" style="rounded=0;whiteSpace=wrap;html=1;fillColor=#d5e8d4;strokeColor=#82b366;" vertex="1" parent="1">
          <mxGeometry x="560" y="80" width="80" height="210" as="geometry" />
        </mxCell>
        <mxCell id="TjdyM8zFQbpC29eJfy2d-21" value="Bloc C" style="rounded=0;whiteSpace=wrap;html=1;fillColor=#dae8fc;strokeColor=#6c8ebf;" vertex="1" parent="1">
          <mxGeometry x="640" y="80" width="360" height="210" as="geometry" />
        </mxCell>
        <mxCell id="TjdyM8zFQbpC29eJfy2d-22" style="edgeStyle=orthogonalEdgeStyle;rounded=0;orthogonalLoop=1;jettySize=auto;html=1;entryX=-0.045;entryY=0.404;entryDx=0;entryDy=0;entryPerimeter=0;" edge="1" parent="1" source="TjdyM8zFQbpC29eJfy2d-3" target="TjdyM8zFQbpC29eJfy2d-20">
          <mxGeometry relative="1" as="geometry">
            <Array as="points">
              <mxPoint x="294" y="160" />
              <mxPoint x="360" y="160" />
              <mxPoint x="360" y="165" />
            </Array>
          </mxGeometry>
        </mxCell>
        <mxCell id="TjdyM8zFQbpC29eJfy2d-23" value="&lt;div style=&quot;text-align: left;&quot;&gt;&lt;span style=&quot;background-color: transparent; color: light-dark(rgb(0, 0, 0), rgb(255, 255, 255));&quot;&gt;ce bloc contient&amp;nbsp;&lt;/span&gt;&lt;/div&gt;&lt;div style=&quot;text-align: left;&quot;&gt;&lt;ul&gt;&lt;li&gt;user profile&lt;/li&gt;&lt;li&gt;notification&amp;nbsp;&lt;/li&gt;&lt;li&gt;&lt;span style=&quot;background-color: transparent; color: light-dark(rgb(0, 0, 0), rgb(255, 255, 255));&quot;&gt;search&lt;/span&gt;&lt;/li&gt;&lt;/ul&gt;&lt;/div&gt;&lt;div&gt;&lt;div&gt;&lt;br&gt;&lt;/div&gt;&lt;/div&gt;" style="whiteSpace=wrap;html=1;aspect=fixed;fillColor=#f8cecc;strokeColor=#b85450;" vertex="1" parent="1">
          <mxGeometry x="364" y="30" width="110" height="110" as="geometry" />
        </mxCell>
        <mxCell id="TjdyM8zFQbpC29eJfy2d-25" value="" style="whiteSpace=wrap;html=1;aspect=fixed;fillColor=#d5e8d4;strokeColor=#82b366;" vertex="1" parent="1">
          <mxGeometry x="480" y="390" width="160" height="160" as="geometry" />
        </mxCell>
        <mxCell id="TjdyM8zFQbpC29eJfy2d-34" style="edgeStyle=orthogonalEdgeStyle;rounded=0;orthogonalLoop=1;jettySize=auto;html=1;entryX=0;entryY=0.5;entryDx=0;entryDy=0;" edge="1" parent="1" source="TjdyM8zFQbpC29eJfy2d-26" target="TjdyM8zFQbpC29eJfy2d-20">
          <mxGeometry relative="1" as="geometry" />
        </mxCell>
        <mxCell id="TjdyM8zFQbpC29eJfy2d-26" value="users managment" style="rounded=0;whiteSpace=wrap;html=1;fillColor=#fff2cc;strokeColor=#d6b656;" vertex="1" parent="1">
          <mxGeometry x="480" y="390" width="160" height="80" as="geometry" />
        </mxCell>
        <mxCell id="TjdyM8zFQbpC29eJfy2d-27" value="Projects managment" style="rounded=0;whiteSpace=wrap;html=1;fillColor=#e1d5e7;strokeColor=#9673a6;" vertex="1" parent="1">
          <mxGeometry x="480" y="480" width="160" height="70" as="geometry" />
        </mxCell>
        <mxCell id="TjdyM8zFQbpC29eJfy2d-29" value="&lt;div&gt;&lt;br&gt;&lt;/div&gt;" style="whiteSpace=wrap;html=1;aspect=fixed;fillColor=#fff2cc;strokeColor=#d6b656;align=left;" vertex="1" parent="1">
          <mxGeometry x="720" y="317.5" width="245" height="245" as="geometry" />
        </mxCell>
        <mxCell id="TjdyM8zFQbpC29eJfy2d-30" value="LISTE USERS" style="rounded=0;whiteSpace=wrap;html=1;" vertex="1" parent="1">
          <mxGeometry x="722.5" y="322.5" width="240" height="60" as="geometry" />
        </mxCell>
        <mxCell id="TjdyM8zFQbpC29eJfy2d-38" style="edgeStyle=orthogonalEdgeStyle;rounded=0;orthogonalLoop=1;jettySize=auto;html=1;" edge="1" parent="1" source="TjdyM8zFQbpC29eJfy2d-31" target="TjdyM8zFQbpC29eJfy2d-36">
          <mxGeometry relative="1" as="geometry" />
        </mxCell>
        <mxCell id="TjdyM8zFQbpC29eJfy2d-31" value="ADD" style="rounded=0;whiteSpace=wrap;html=1;" vertex="1" parent="1">
          <mxGeometry x="740" y="487.5" width="60" height="40" as="geometry" />
        </mxCell>
        <mxCell id="TjdyM8zFQbpC29eJfy2d-32" value="DELETE" style="rounded=0;whiteSpace=wrap;html=1;" vertex="1" parent="1">
          <mxGeometry x="810" y="487.5" width="70" height="40" as="geometry" />
        </mxCell>
        <mxCell id="TjdyM8zFQbpC29eJfy2d-39" style="edgeStyle=orthogonalEdgeStyle;rounded=0;orthogonalLoop=1;jettySize=auto;html=1;" edge="1" parent="1" source="TjdyM8zFQbpC29eJfy2d-33" target="TjdyM8zFQbpC29eJfy2d-37">
          <mxGeometry relative="1" as="geometry" />
        </mxCell>
        <mxCell id="TjdyM8zFQbpC29eJfy2d-33" value="EDIT" style="rounded=0;whiteSpace=wrap;html=1;" vertex="1" parent="1">
          <mxGeometry x="890" y="487.5" width="50" height="40" as="geometry" />
        </mxCell>
        <mxCell id="TjdyM8zFQbpC29eJfy2d-35" style="edgeStyle=orthogonalEdgeStyle;rounded=0;orthogonalLoop=1;jettySize=auto;html=1;entryX=0.005;entryY=0.402;entryDx=0;entryDy=0;entryPerimeter=0;" edge="1" parent="1" source="TjdyM8zFQbpC29eJfy2d-26" target="TjdyM8zFQbpC29eJfy2d-29">
          <mxGeometry relative="1" as="geometry" />
        </mxCell>
        <mxCell id="TjdyM8zFQbpC29eJfy2d-36" value="&lt;div&gt;&lt;br&gt;&lt;/div&gt;Nom&lt;div&gt;Prénom&lt;/div&gt;&lt;div&gt;Email&lt;/div&gt;&lt;div&gt;poste(dropdown des roles)&lt;/div&gt;" style="whiteSpace=wrap;html=1;aspect=fixed;" vertex="1" parent="1">
          <mxGeometry x="730" y="640" width="120" height="120" as="geometry" />
        </mxCell>
        <mxCell id="TjdyM8zFQbpC29eJfy2d-37" value="edit user page&amp;nbsp;" style="whiteSpace=wrap;html=1;aspect=fixed;" vertex="1" parent="1">
          <mxGeometry x="890" y="640" width="120" height="120" as="geometry" />
        </mxCell>
        <mxCell id="TjdyM8zFQbpC29eJfy2d-42" value="saisir email" style="rounded=0;whiteSpace=wrap;html=1;" vertex="1" parent="1">
          <mxGeometry x="-65" y="390" width="120" height="47.5" as="geometry" />
        </mxCell>
        <mxCell id="TjdyM8zFQbpC29eJfy2d-44" value="saisir&amp;nbsp; code vérification" style="rounded=0;whiteSpace=wrap;html=1;" vertex="1" parent="1">
          <mxGeometry x="150" y="377.5" width="120" height="60" as="geometry" />
        </mxCell>
        <mxCell id="TjdyM8zFQbpC29eJfy2d-45" value="confirm" style="rounded=0;whiteSpace=wrap;html=1;" vertex="1" parent="1">
          <mxGeometry x="-65" y="452.5" width="120" height="30" as="geometry" />
        </mxCell>
        <mxCell id="TjdyM8zFQbpC29eJfy2d-46" value="saisir nouveau mot de passe&amp;nbsp;&amp;nbsp;" style="rounded=0;whiteSpace=wrap;html=1;" vertex="1" parent="1">
          <mxGeometry x="120" y="520" width="170" height="93" as="geometry" />
        </mxCell>
      </root>
    </mxGraphModel>
  </diagram>
</mxfile>
